<mxfile host="app.diagrams.net" modified="2024-03-11T09:14:03.513Z" agent="Mozilla/5.0 (Windows NT 10.0; Win64; x64) AppleWebKit/537.36 (KHTML, like Gecko) Chrome/122.0.0.0 Safari/537.36" etag="cd0dtv7lmPNM9swL5YaE" version="23.1.5" type="device">
  <diagram name="Page-1" id="1lTsiWQF_K08iPgitO0J">
    <mxGraphModel dx="1434" dy="1966" grid="1" gridSize="10" guides="1" tooltips="1" connect="1" arrows="1" fold="1" page="1" pageScale="1" pageWidth="850" pageHeight="1100" math="0" shadow="0">
      <root>
        <mxCell id="0" />
        <mxCell id="1" parent="0" />
        <mxCell id="Y13cAEZPr7QYiQevYxJ0-1" value="Login page" style="rounded=0;whiteSpace=wrap;html=1;" vertex="1" parent="1">
          <mxGeometry x="310" y="110" width="120" height="60" as="geometry" />
        </mxCell>
        <mxCell id="Y13cAEZPr7QYiQevYxJ0-2" value="Registration page" style="rounded=0;whiteSpace=wrap;html=1;" vertex="1" parent="1">
          <mxGeometry x="80" y="110" width="120" height="60" as="geometry" />
        </mxCell>
        <mxCell id="Y13cAEZPr7QYiQevYxJ0-3" value="Planet system simulator" style="rounded=0;whiteSpace=wrap;html=1;strokeWidth=3;" vertex="1" parent="1">
          <mxGeometry x="310" y="380" width="120" height="60" as="geometry" />
        </mxCell>
        <mxCell id="Y13cAEZPr7QYiQevYxJ0-4" value="Planetary system list" style="rounded=0;whiteSpace=wrap;html=1;strokeWidth=3;" vertex="1" parent="1">
          <mxGeometry x="310" y="260" width="120" height="60" as="geometry" />
        </mxCell>
        <mxCell id="Y13cAEZPr7QYiQevYxJ0-5" value="Planet system CRUD&lt;br&gt;API" style="rounded=0;whiteSpace=wrap;html=1;" vertex="1" parent="1">
          <mxGeometry x="730" y="260" width="120" height="60" as="geometry" />
        </mxCell>
        <mxCell id="Y13cAEZPr7QYiQevYxJ0-6" value="" style="endArrow=classic;html=1;rounded=0;exitX=0;exitY=0.25;exitDx=0;exitDy=0;entryX=1;entryY=0.25;entryDx=0;entryDy=0;" edge="1" parent="1" source="Y13cAEZPr7QYiQevYxJ0-1" target="Y13cAEZPr7QYiQevYxJ0-2">
          <mxGeometry width="50" height="50" relative="1" as="geometry">
            <mxPoint x="400" y="370" as="sourcePoint" />
            <mxPoint x="450" y="320" as="targetPoint" />
          </mxGeometry>
        </mxCell>
        <mxCell id="Y13cAEZPr7QYiQevYxJ0-8" value="" style="endArrow=classic;html=1;rounded=0;exitX=0.25;exitY=1;exitDx=0;exitDy=0;entryX=0.25;entryY=0;entryDx=0;entryDy=0;" edge="1" parent="1" source="Y13cAEZPr7QYiQevYxJ0-1" target="Y13cAEZPr7QYiQevYxJ0-4">
          <mxGeometry width="50" height="50" relative="1" as="geometry">
            <mxPoint x="560" y="70" as="sourcePoint" />
            <mxPoint x="610" y="20" as="targetPoint" />
          </mxGeometry>
        </mxCell>
        <mxCell id="Y13cAEZPr7QYiQevYxJ0-9" value="" style="endArrow=classic;html=1;rounded=0;exitX=0.75;exitY=0;exitDx=0;exitDy=0;entryX=0.75;entryY=1;entryDx=0;entryDy=0;" edge="1" parent="1" source="Y13cAEZPr7QYiQevYxJ0-4" target="Y13cAEZPr7QYiQevYxJ0-1">
          <mxGeometry width="50" height="50" relative="1" as="geometry">
            <mxPoint x="570" y="80" as="sourcePoint" />
            <mxPoint x="620" y="30" as="targetPoint" />
          </mxGeometry>
        </mxCell>
        <mxCell id="Y13cAEZPr7QYiQevYxJ0-10" value="" style="endArrow=classic;html=1;rounded=0;exitX=1;exitY=0.75;exitDx=0;exitDy=0;entryX=0;entryY=0.75;entryDx=0;entryDy=0;" edge="1" parent="1" source="Y13cAEZPr7QYiQevYxJ0-2" target="Y13cAEZPr7QYiQevYxJ0-1">
          <mxGeometry width="50" height="50" relative="1" as="geometry">
            <mxPoint x="580" y="90" as="sourcePoint" />
            <mxPoint x="630" y="40" as="targetPoint" />
          </mxGeometry>
        </mxCell>
        <mxCell id="Y13cAEZPr7QYiQevYxJ0-11" value="Registration&lt;br&gt;succeeded / canceled" style="text;html=1;align=center;verticalAlign=middle;resizable=0;points=[];autosize=1;strokeColor=none;fillColor=none;" vertex="1" parent="1">
          <mxGeometry x="180" y="153" width="140" height="40" as="geometry" />
        </mxCell>
        <mxCell id="Y13cAEZPr7QYiQevYxJ0-13" value="No account,&lt;br&gt;register" style="text;html=1;align=center;verticalAlign=middle;resizable=0;points=[];autosize=1;strokeColor=none;fillColor=none;" vertex="1" parent="1">
          <mxGeometry x="205" y="80" width="90" height="40" as="geometry" />
        </mxCell>
        <mxCell id="Y13cAEZPr7QYiQevYxJ0-14" value="" style="endArrow=classic;html=1;rounded=0;exitX=1;exitY=0.5;exitDx=0;exitDy=0;entryX=0;entryY=0.5;entryDx=0;entryDy=0;" edge="1" parent="1" source="Y13cAEZPr7QYiQevYxJ0-4" target="Y13cAEZPr7QYiQevYxJ0-5">
          <mxGeometry width="50" height="50" relative="1" as="geometry">
            <mxPoint x="580" y="90" as="sourcePoint" />
            <mxPoint x="570" y="230" as="targetPoint" />
          </mxGeometry>
        </mxCell>
        <mxCell id="Y13cAEZPr7QYiQevYxJ0-15" value="" style="endArrow=classic;html=1;rounded=0;exitX=0.25;exitY=1;exitDx=0;exitDy=0;entryX=0.25;entryY=0;entryDx=0;entryDy=0;" edge="1" parent="1" source="Y13cAEZPr7QYiQevYxJ0-4" target="Y13cAEZPr7QYiQevYxJ0-3">
          <mxGeometry width="50" height="50" relative="1" as="geometry">
            <mxPoint x="590" y="100" as="sourcePoint" />
            <mxPoint x="640" y="50" as="targetPoint" />
          </mxGeometry>
        </mxCell>
        <mxCell id="Y13cAEZPr7QYiQevYxJ0-16" value="" style="endArrow=classic;html=1;rounded=0;exitX=0;exitY=0.75;exitDx=0;exitDy=0;entryX=1;entryY=0.75;entryDx=0;entryDy=0;" edge="1" parent="1" source="Y13cAEZPr7QYiQevYxJ0-19" target="Y13cAEZPr7QYiQevYxJ0-3">
          <mxGeometry width="50" height="50" relative="1" as="geometry">
            <mxPoint x="600" y="110" as="sourcePoint" />
            <mxPoint x="650" y="60" as="targetPoint" />
          </mxGeometry>
        </mxCell>
        <mxCell id="Y13cAEZPr7QYiQevYxJ0-17" value="" style="endArrow=classic;html=1;rounded=0;exitX=1;exitY=0.25;exitDx=0;exitDy=0;entryX=0;entryY=0.25;entryDx=0;entryDy=0;" edge="1" parent="1" source="Y13cAEZPr7QYiQevYxJ0-3" target="Y13cAEZPr7QYiQevYxJ0-19">
          <mxGeometry width="50" height="50" relative="1" as="geometry">
            <mxPoint x="510" y="430" as="sourcePoint" />
            <mxPoint x="560" y="370" as="targetPoint" />
          </mxGeometry>
        </mxCell>
        <mxCell id="Y13cAEZPr7QYiQevYxJ0-18" value="" style="endArrow=classic;html=1;rounded=0;exitX=1;exitY=0.5;exitDx=0;exitDy=0;entryX=0;entryY=0.5;entryDx=0;entryDy=0;" edge="1" parent="1" source="Y13cAEZPr7QYiQevYxJ0-20" target="Y13cAEZPr7QYiQevYxJ0-21">
          <mxGeometry width="50" height="50" relative="1" as="geometry">
            <mxPoint x="620" y="130" as="sourcePoint" />
            <mxPoint x="670" y="80" as="targetPoint" />
          </mxGeometry>
        </mxCell>
        <mxCell id="Y13cAEZPr7QYiQevYxJ0-19" value="Planet system simulator API" style="rounded=0;whiteSpace=wrap;html=1;" vertex="1" parent="1">
          <mxGeometry x="730" y="380" width="120" height="60" as="geometry" />
        </mxCell>
        <mxCell id="Y13cAEZPr7QYiQevYxJ0-20" value="Planet system editor" style="rounded=0;whiteSpace=wrap;html=1;strokeWidth=3;" vertex="1" parent="1">
          <mxGeometry x="310" y="510" width="120" height="60" as="geometry" />
        </mxCell>
        <mxCell id="Y13cAEZPr7QYiQevYxJ0-21" value="Planet system editor&lt;br&gt;API" style="rounded=0;whiteSpace=wrap;html=1;" vertex="1" parent="1">
          <mxGeometry x="730" y="510" width="120" height="60" as="geometry" />
        </mxCell>
        <mxCell id="Y13cAEZPr7QYiQevYxJ0-22" value="Login" style="text;html=1;align=center;verticalAlign=middle;resizable=0;points=[];autosize=1;strokeColor=none;fillColor=none;" vertex="1" parent="1">
          <mxGeometry x="295" y="198" width="50" height="30" as="geometry" />
        </mxCell>
        <mxCell id="Y13cAEZPr7QYiQevYxJ0-23" value="Logout" style="text;html=1;align=center;verticalAlign=middle;resizable=0;points=[];autosize=1;strokeColor=none;fillColor=none;" vertex="1" parent="1">
          <mxGeometry x="395" y="198" width="60" height="30" as="geometry" />
        </mxCell>
        <mxCell id="Y13cAEZPr7QYiQevYxJ0-24" value="Request / Response&lt;br&gt;REST HTTP" style="text;html=1;align=center;verticalAlign=middle;resizable=0;points=[];autosize=1;strokeColor=none;fillColor=none;" vertex="1" parent="1">
          <mxGeometry x="510" y="253" width="130" height="40" as="geometry" />
        </mxCell>
        <mxCell id="Y13cAEZPr7QYiQevYxJ0-25" value="Request / Response&lt;br&gt;REST HTTP" style="text;html=1;align=center;verticalAlign=middle;resizable=0;points=[];autosize=1;strokeColor=none;fillColor=none;" vertex="1" parent="1">
          <mxGeometry x="510" y="500" width="130" height="40" as="geometry" />
        </mxCell>
        <mxCell id="Y13cAEZPr7QYiQevYxJ0-26" value="Start / Stop simulating&lt;br&gt;WebSocket" style="text;html=1;align=center;verticalAlign=middle;resizable=0;points=[];autosize=1;strokeColor=none;fillColor=none;" vertex="1" parent="1">
          <mxGeometry x="505" y="360" width="140" height="40" as="geometry" />
        </mxCell>
        <mxCell id="Y13cAEZPr7QYiQevYxJ0-27" value="Send planet positions&lt;br&gt;WebSocket" style="text;html=1;align=center;verticalAlign=middle;resizable=0;points=[];autosize=1;strokeColor=none;fillColor=none;" vertex="1" parent="1">
          <mxGeometry x="505" y="420" width="140" height="40" as="geometry" />
        </mxCell>
        <mxCell id="Y13cAEZPr7QYiQevYxJ0-28" value="" style="endArrow=classic;html=1;rounded=0;exitX=0;exitY=0.25;exitDx=0;exitDy=0;entryX=0;entryY=0.75;entryDx=0;entryDy=0;" edge="1" parent="1" source="Y13cAEZPr7QYiQevYxJ0-4" target="Y13cAEZPr7QYiQevYxJ0-20">
          <mxGeometry width="50" height="50" relative="1" as="geometry">
            <mxPoint x="600" y="110" as="sourcePoint" />
            <mxPoint x="650" y="60" as="targetPoint" />
            <Array as="points">
              <mxPoint x="180" y="275" />
              <mxPoint x="180" y="555" />
            </Array>
          </mxGeometry>
        </mxCell>
        <mxCell id="Y13cAEZPr7QYiQevYxJ0-30" value="" style="endArrow=classic;html=1;rounded=0;exitX=0.75;exitY=0;exitDx=0;exitDy=0;entryX=0.75;entryY=1;entryDx=0;entryDy=0;" edge="1" parent="1" source="Y13cAEZPr7QYiQevYxJ0-3" target="Y13cAEZPr7QYiQevYxJ0-4">
          <mxGeometry width="50" height="50" relative="1" as="geometry">
            <mxPoint x="620" y="130" as="sourcePoint" />
            <mxPoint x="670" y="80" as="targetPoint" />
          </mxGeometry>
        </mxCell>
        <mxCell id="Y13cAEZPr7QYiQevYxJ0-31" value="Open planetary&lt;br&gt;system" style="text;html=1;align=center;verticalAlign=middle;resizable=0;points=[];autosize=1;strokeColor=none;fillColor=none;" vertex="1" parent="1">
          <mxGeometry x="245" y="333" width="110" height="40" as="geometry" />
        </mxCell>
        <mxCell id="Y13cAEZPr7QYiQevYxJ0-32" value="Close planetary&lt;br&gt;system" style="text;html=1;align=center;verticalAlign=middle;resizable=0;points=[];autosize=1;strokeColor=none;fillColor=none;" vertex="1" parent="1">
          <mxGeometry x="390" y="333" width="110" height="40" as="geometry" />
        </mxCell>
        <mxCell id="Y13cAEZPr7QYiQevYxJ0-33" value="Create new /&lt;br&gt;Edit existing" style="text;html=1;align=center;verticalAlign=middle;resizable=0;points=[];autosize=1;strokeColor=none;fillColor=none;" vertex="1" parent="1">
          <mxGeometry x="95" y="385" width="90" height="40" as="geometry" />
        </mxCell>
        <mxCell id="Y13cAEZPr7QYiQevYxJ0-34" value="" style="endArrow=classic;html=1;rounded=0;exitX=0;exitY=0.25;exitDx=0;exitDy=0;entryX=0;entryY=0.75;entryDx=0;entryDy=0;" edge="1" parent="1" source="Y13cAEZPr7QYiQevYxJ0-20" target="Y13cAEZPr7QYiQevYxJ0-4">
          <mxGeometry width="50" height="50" relative="1" as="geometry">
            <mxPoint x="620" y="130" as="sourcePoint" />
            <mxPoint x="670" y="80" as="targetPoint" />
            <Array as="points">
              <mxPoint x="220" y="525" />
              <mxPoint x="220" y="305" />
            </Array>
          </mxGeometry>
        </mxCell>
        <mxCell id="Y13cAEZPr7QYiQevYxJ0-35" value="Back" style="text;html=1;align=center;verticalAlign=middle;resizable=0;points=[];autosize=1;strokeColor=none;fillColor=none;" vertex="1" parent="1">
          <mxGeometry x="215" y="385" width="50" height="30" as="geometry" />
        </mxCell>
        <mxCell id="Y13cAEZPr7QYiQevYxJ0-37" value="Backend" style="shape=umlFrame;whiteSpace=wrap;html=1;pointerEvents=0;" vertex="1" parent="1">
          <mxGeometry x="630" y="-30" width="360" height="640" as="geometry" />
        </mxCell>
        <mxCell id="Y13cAEZPr7QYiQevYxJ0-38" value="Frontend" style="shape=umlFrame;whiteSpace=wrap;html=1;pointerEvents=0;" vertex="1" parent="1">
          <mxGeometry x="40" y="60" width="450" height="550" as="geometry" />
        </mxCell>
        <mxCell id="Y13cAEZPr7QYiQevYxJ0-40" value="Authentication API" style="rounded=0;whiteSpace=wrap;html=1;" vertex="1" parent="1">
          <mxGeometry x="730" y="80" width="120" height="60" as="geometry" />
        </mxCell>
        <mxCell id="Y13cAEZPr7QYiQevYxJ0-41" value="Registration API" style="rounded=0;whiteSpace=wrap;html=1;" vertex="1" parent="1">
          <mxGeometry x="730" y="160" width="120" height="60" as="geometry" />
        </mxCell>
        <mxCell id="Y13cAEZPr7QYiQevYxJ0-42" value="Connection to login&lt;br&gt;and registration page&lt;br&gt;trivial" style="text;html=1;align=center;verticalAlign=middle;resizable=0;points=[];autosize=1;strokeColor=none;fillColor=none;" vertex="1" parent="1">
          <mxGeometry x="720" y="20" width="140" height="60" as="geometry" />
        </mxCell>
        <mxCell id="Y13cAEZPr7QYiQevYxJ0-43" value="" style="rounded=0;whiteSpace=wrap;html=1;strokeWidth=3;" vertex="1" parent="1">
          <mxGeometry x="50" y="660" width="120" height="60" as="geometry" />
        </mxCell>
        <mxCell id="Y13cAEZPr7QYiQevYxJ0-44" value="Page and all connected APIs&lt;br&gt;require authentication" style="text;html=1;align=center;verticalAlign=middle;resizable=0;points=[];autosize=1;strokeColor=none;fillColor=none;" vertex="1" parent="1">
          <mxGeometry x="160" y="670" width="180" height="40" as="geometry" />
        </mxCell>
        <mxCell id="Y13cAEZPr7QYiQevYxJ0-45" value="Database" style="rounded=0;whiteSpace=wrap;html=1;" vertex="1" parent="1">
          <mxGeometry x="1100" y="290" width="120" height="60" as="geometry" />
        </mxCell>
        <mxCell id="Y13cAEZPr7QYiQevYxJ0-46" value="" style="endArrow=classic;html=1;rounded=0;" edge="1" parent="1" source="Y13cAEZPr7QYiQevYxJ0-40" target="Y13cAEZPr7QYiQevYxJ0-45">
          <mxGeometry width="50" height="50" relative="1" as="geometry">
            <mxPoint x="1070" y="580" as="sourcePoint" />
            <mxPoint x="1120" y="530" as="targetPoint" />
          </mxGeometry>
        </mxCell>
        <mxCell id="Y13cAEZPr7QYiQevYxJ0-47" value="" style="endArrow=classic;html=1;rounded=0;" edge="1" parent="1" source="Y13cAEZPr7QYiQevYxJ0-41" target="Y13cAEZPr7QYiQevYxJ0-45">
          <mxGeometry width="50" height="50" relative="1" as="geometry">
            <mxPoint x="1080" y="590" as="sourcePoint" />
            <mxPoint x="1130" y="540" as="targetPoint" />
          </mxGeometry>
        </mxCell>
        <mxCell id="Y13cAEZPr7QYiQevYxJ0-48" value="" style="endArrow=classic;html=1;rounded=0;" edge="1" parent="1" source="Y13cAEZPr7QYiQevYxJ0-5" target="Y13cAEZPr7QYiQevYxJ0-45">
          <mxGeometry width="50" height="50" relative="1" as="geometry">
            <mxPoint x="1090" y="600" as="sourcePoint" />
            <mxPoint x="1140" y="550" as="targetPoint" />
          </mxGeometry>
        </mxCell>
        <mxCell id="Y13cAEZPr7QYiQevYxJ0-49" value="" style="endArrow=classic;html=1;rounded=0;" edge="1" parent="1" source="Y13cAEZPr7QYiQevYxJ0-21" target="Y13cAEZPr7QYiQevYxJ0-45">
          <mxGeometry width="50" height="50" relative="1" as="geometry">
            <mxPoint x="1100" y="610" as="sourcePoint" />
            <mxPoint x="1150" y="560" as="targetPoint" />
          </mxGeometry>
        </mxCell>
        <mxCell id="Y13cAEZPr7QYiQevYxJ0-51" value="Auth components" style="shape=umlFrame;whiteSpace=wrap;html=1;pointerEvents=0;width=100;dashed=1;" vertex="1" parent="1">
          <mxGeometry x="705" y="-10" width="170" height="250" as="geometry" />
        </mxCell>
        <mxCell id="Y13cAEZPr7QYiQevYxJ0-52" value="Database" style="shape=umlFrame;whiteSpace=wrap;html=1;pointerEvents=0;" vertex="1" parent="1">
          <mxGeometry x="1060" y="225" width="190" height="185" as="geometry" />
        </mxCell>
      </root>
    </mxGraphModel>
  </diagram>
</mxfile>
